# xmcd
#
# Track frame offsets:
#	150
#	20487
#	38084
#	60621
#	79951
#	100201
#	120671
#	140186
#	159793
#	176550
#	197139
#	217403
#	238817
#	260373
#
# Disc length: 3668 seconds
#
# Revision: 0
# Processed by: cddbd v1.5.2PL0 Copyright (c) Steve Scherf et al.
# Submitted via: EZCDAudioConverter 7.1.8.1
#
DISCID=cb0e520e
DTITLE=Vargas Blues Band - King Of Latin Blues CD 1
DYEAR=2018
DGENRE=Latin Blues Rock
TTITLE0=The King Of The Latin Blues
TTITLE1=Coward's Knife
TTITLE2=Don't Let The Children Cry
TTITLE3=Welcome To The World
TTITLE4=Back To The City
TTITLE5=Passion Blues
TTITLE6=How Verso Are You?
TTITLE7=No Pasa Nada
TTITLE8=Hot Wires
TTITLE9=Para Guarachar
TTITLE10=CHill Out (Sácalo)
TTITLE11=Luna
TTITLE12=Exotic Mambo
TTITLE13=Right On
EXTD=
EXTT0=
EXTT1=
EXTT2=
EXTT3=
EXTT4=
EXTT5=
EXTT6=
EXTT7=
EXTT8=
EXTT9=
EXTT10=
EXTT11=
EXTT12=
EXTT13=
PLAYORDER=
